<svg width="46" height="46" viewBox="0 0 56 56" fill="none" xmlns="http://www.w3.org/2000/svg">
<path d="M44.2307 37.8775L43.7108 38.7317L45.4193 39.7714L45.9392 38.9172L44.2307 37.8775ZM34.723 47.8952C35.2463 47.7187 35.5274 47.1513 35.3509 46.628C35.1743 46.1047 34.607 45.8236 34.0837 46.0002L34.723 47.8952ZM18.1225 44.2307C9.15854 38.7755 6.31411 27.0865 11.7693 18.1225L10.0608 17.0828C4.03138 26.9903 7.17523 39.9098 17.0828 45.9392L18.1225 44.2307ZM11.7693 18.1225C17.2245 9.15854 28.9135 6.31411 37.8775 11.7693L38.9172 10.0608C29.0096 4.03139 16.0902 7.17524 10.0608 17.0828L11.7693 18.1225ZM37.8775 11.7693C46.8414 17.2245 49.6859 28.9135 44.2307 37.8775L45.9392 38.9172C51.9686 29.0096 48.8247 16.0902 38.9172 10.0608L37.8775 11.7693ZM34.0837 46.0002C28.9472 47.7331 23.1131 47.2678 18.1225 44.2307L17.0828 45.9392C22.5993 49.2963 29.0507 49.8089 34.723 47.8952L34.0837 46.0002Z" fill="white"/>
<path d="M41.4019 40.5L44 36L46.5981 40.5H41.4019Z" fill="white" stroke="white"/>
</svg>
