<svg width="16" height="16" viewBox="0 0 16 16" fill="black" xmlns="http://www.w3.org/2000/svg">
<circle cx="8" cy="8" r="8" fill="#D9D9D9"/>
<path fill-rule="evenodd" clip-rule="evenodd" d="M4.9875 4.98744C5.23744 4.7375 5.64266 4.7375 5.8926 4.98744L11.0126 10.1074C11.2625 10.3574 11.2625 10.7626 11.0126 11.0125C10.7627 11.2625 10.3574 11.2625 10.1075 11.0125L4.9875 5.89254C4.73756 5.6426 4.73756 5.23737 4.9875 4.98744Z" fill="black"/>
<path fill-rule="evenodd" clip-rule="evenodd" d="M4.9875 11.0126C4.73756 10.7626 4.73756 10.3574 4.9875 10.1075L10.1075 4.98746C10.3574 4.73753 10.7627 4.73753 11.0126 4.98746C11.2625 5.2374 11.2625 5.64262 11.0126 5.89256L5.8926 11.0126C5.64266 11.2625 5.23744 11.2625 4.9875 11.0126Z" fill="black"/>
</svg>
