<svg width="40" height="40" viewBox="0 0 40 40" fill="none" xmlns="http://www.w3.org/2000/svg">
<path d="M20.594 9.40603C20.2659 9.07799 19.7341 9.07799 19.406 9.40603L14.0603 14.7518C13.7323 15.0798 13.7323 15.6117 14.0603 15.9397C14.3883 16.2677 14.9202 16.2677 15.2482 15.9397L20 11.1879L24.7518 15.9397C25.0798 16.2677 25.6117 16.2677 25.9397 15.9397C26.2677 15.6117 26.2677 15.0798 25.9397 14.7518L20.594 9.40603ZM19.16 30C19.16 30.4639 19.5361 30.84 20 30.84C20.4639 30.84 20.84 30.4639 20.84 30H19.16ZM19.16 10V30H20.84V10H19.16Z" fill="white"/>
</svg>
